<?xml version="1.0" encoding="UTF-8" standalone="no"?>
<svg
   width="700pt"
   height="700pt"
   version="1.1"
   viewBox="0 0 700 700"
   id="svg19"
   sodipodi:docname="noun-waveform-3601491.svg"
   xml:space="preserve"
   xmlns:inkscape="http://www.inkscape.org/namespaces/inkscape"
   xmlns:sodipodi="http://sodipodi.sourceforge.net/DTD/sodipodi-0.dtd"
   xmlns="http://www.w3.org/2000/svg"
   xmlns:svg="http://www.w3.org/2000/svg"><defs
     id="defs23" /><sodipodi:namedview
     id="namedview21"
     pagecolor="#ffffff"
     bordercolor="#000000"
     borderopacity="0.25"
     inkscape:showpageshadow="2"
     inkscape:pageopacity="0.0"
     inkscape:pagecheckerboard="0"
     inkscape:deskcolor="#d1d1d1"
     inkscape:document-units="pt"
     showgrid="false"
     inkscape:lockguides="true"
     showguides="true"><sodipodi:guide
       position="245.62657,343.65541"
       orientation="0,-1"
       id="guide1830"
       inkscape:locked="true" /></sodipodi:namedview><path
     d="m 349.14369,355.85289 c 12.50131,0 22.80604,9.41059 24.21385,21.53407 l 0.16323,2.8431 v 280.34156 c 0,13.46422 -10.91329,24.37751 -24.37751,24.37751 -12.50132,0 -22.80605,-9.41059 -24.21386,-21.53407 l -0.16323,-2.8431 V 380.23043 c 0,-13.46423 10.9133,-24.37754 24.37752,-24.37754 z m -97.5101,64.11377 c 12.50132,0 22.80605,9.4106 24.21385,21.53405 l 0.16324,2.84313 v 152.35953 c 0,13.46423 -10.91329,24.37752 -24.37752,24.37752 -12.50132,0 -22.80605,-9.41059 -24.21384,-21.53405 l -0.16326,-2.84313 V 444.34419 c 0,-13.46424 10.9133,-24.37753 24.37753,-24.37753 z m 195.02021,0 c 12.5013,0 22.80603,9.4106 24.21383,21.53405 l 0.16326,2.84313 v 152.35953 c 0,13.46423 -10.91331,24.37752 -24.37753,24.37752 -12.50133,0 -22.80606,-9.41059 -24.21386,-21.53405 l -0.16324,-2.84313 V 444.34419 c 0,-13.46424 10.9133,-24.37753 24.37754,-24.37753 z m 87.75908,76.05699 c 13.46423,0 24.37752,10.91331 24.37752,24.37754 0,13.46423 -10.91329,24.37752 -24.37752,24.37752 -13.46423,0 -24.37752,-10.91329 -24.37752,-24.37752 0,-13.46423 10.91329,-24.37754 24.37752,-24.37754 z m -368.10064,0 c 13.46423,0 24.37754,10.91331 24.37754,24.37754 0,13.46423 -10.91331,24.37752 -24.37754,24.37752 -13.46422,0 -24.37751,-10.91329 -24.37751,-24.37752 0,-13.46423 10.91329,-24.37754 24.37751,-24.37754 z"
     id="path17"
     inkscape:highlight-color="#600f0f"
     style="stroke-width:0.870625" /><g
     id="g1440"
     transform="matrix(1.0980488,0,0,1.0980488,-144.54773,-265.64294)"><path
       d="M 712.63634,648.80595 V 524.50449 C 712.63634,379.4896 594.43504,262.5 450.63183,262.5 306.82861,262.5 188.62732,379.4896 188.62732,524.50449 v 124.30146 c -17.06377,4.87596 -30.46743,20.7197 -30.46743,40.21518 v 116.98961 c 0,23.15559 18.27962,41.43521 42.65107,41.43521 h 49.96292 l 0.004,-322.94355 c -1.22006,-110.88944 88.95804,-201.07589 199.85375,-201.07589 110.8957,0 201.07589,90.1781 201.07589,201.07589 v 322.94355 h 49.96293 c 23.15559,0 42.65107,-18.27962 42.65107,-42.65106 l 0.004,-115.77794 c -1.22003,-19.49548 -14.6237,-35.33922 -31.68747,-40.21518 z"
       id="path1420"
       style="stroke-width:1.04455" /></g></svg>
